solid ElevatorAssembly
   facet normal 1.047444e-14 -1.000000e+00 0.000000e+00
      outer loop
         vertex -1.292910e+03 -2.450000e+01 1.009128e+02
         vertex -1.293163e+03 -2.450000e+01 1.009805e+02
         vertex -1.292650e+03 -2.450000e+01 9.989000e+01
      endloop
   endfacet
   facet normal 1.047444e-14 -1.000000e+00 0.000000e+00
      outer loop
         vertex -1.293614e+03 -2.450000e+01 1.012409e+02
         vertex -1.293799e+03 -2.450000e+01 1.014258e+02
         vertex -1.305350e+03 -2.450000e+01 9.989000e+01
      endloop
   endfacet
   facet normal 1.047444e-14 -1.000000e+00 0.000000e+00
      outer loop
         vertex -1.305350e+03 -2.450000e+01 9.989000e+01
         vertex -1.293799e+03 -2.450000e+01 1.014258e+02
         vertex -1.293949e+03 -2.450000e+01 1.016400e+02
      endloop
   endfacet
   facet normal 1.047444e-14 -1.000000e+00 0.000000e+00
      outer loop
         vertex -1.305350e+03 -2.450000e+01 9.989000e+01
         vertex -1.293949e+03 -2.450000e+01 1.016400e+02
         vertex -1.294060e+03 -2.450000e+01 1.018770e+02
      endloop
   endfacet
   facet normal 1.047444e-14 -1.000000e+00 0.000000e+00
      outer loop
         vertex -1.294060e+03 -2.450000e+01 1.029030e+02
         vertex -1.293949e+03 -2.450000e+01 1.031400e+02
         vertex -1.305350e+03 -2.450000e+01 1.048900e+02
      endloop
   endfacet
   facet normal 1.047444e-14 -1.000000e+00 0.000000e+00
      outer loop
         vertex -1.305350e+03 -2.450000e+01 1.048900e+02
         vertex -1.293949e+03 -2.450000e+01 1.031400e+02
         vertex -1.293799e+03 -2.450000e+01 1.033542e+02
      endloop
   endfacet
   facet normal 1.047444e-14 -1.000000e+00 0.000000e+00
      outer loop
         vertex -1.292650e+03 -2.450000e+01 9.989000e+01
         vertex -1.293163e+03 -2.450000e+01 1.009805e+02
         vertex -1.305350e+03 -2.450000e+01 9.989000e+01
      endloop
   endfacet
   facet normal 1.047444e-14 -1.000000e+00 0.000000e+00
      outer loop
         vertex -1.305350e+03 -2.450000e+01 9.989000e+01
         vertex -1.293163e+03 -2.450000e+01 1.009805e+02
         vertex -1.293400e+03 -2.450000e+01 1.010910e+02
      endloop
   endfacet
   facet normal 1.047444e-14 -1.000000e+00 0.000000e+00
      outer loop
         vertex -1.305350e+03 -2.450000e+01 9.989000e+01
         vertex -1.293400e+03 -2.450000e+01 1.010910e+02
         vertex -1.293614e+03 -2.450000e+01 1.012409e+02
      endloop
   endfacet
   facet normal 1.047444e-14 -1.000000e+00 0.000000e+00
      outer loop
         vertex -1.294060e+03 -2.450000e+01 1.018770e+02
         vertex -1.294127e+03 -2.450000e+01 1.021295e+02
         vertex -1.305350e+03 -2.450000e+01 9.989000e+01
      endloop
   endfacet
   facet normal 1.047444e-14 -1.000000e+00 0.000000e+00
      outer loop
         vertex -1.305350e+03 -2.450000e+01 9.989000e+01
         vertex -1.294127e+03 -2.450000e+01 1.021295e+02
         vertex -1.294150e+03 -2.450000e+01 1.023900e+02
      endloop
   endfacet
   facet normal 1.047444e-14 -1.000000e+00 0.000000e+00
      outer loop
         vertex -1.305350e+03 -2.450000e+01 9.989000e+01
         vertex -1.294150e+03 -2.450000e+01 1.023900e+02
         vertex -1.305350e+03 -2.450000e+01 1.048900e+02
      endloop
   endfacet
   facet normal 1.047444e-14 -1.000000e+00 0.000000e+00
      outer loop
         vertex -1.305350e+03 -2.450000e+01 1.048900e+02
         vertex -1.294150e+03 -2.450000e+01 1.023900e+02
         vertex -1.294127e+03 -2.450000e+01 1.026505e+02
      endloop
   endfacet
   facet normal 1.047444e-14 -1.000000e+00 0.000000e+00
      outer loop
         vertex -1.305350e+03 -2.450000e+01 1.048900e+02
         vertex -1.294127e+03 -2.450000e+01 1.026505e+02
         vertex -1.294060e+03 -2.450000e+01 1.029030e+02
      endloop
   endfacet
   facet normal 1.047444e-14 -1.000000e+00 0.000000e+00
      outer loop
         vertex -1.293799e+03 -2.450000e+01 1.033542e+02
         vertex -1.293614e+03 -2.450000e+01 1.035391e+02
         vertex -1.305350e+03 -2.450000e+01 1.048900e+02
      endloop
   endfacet
   facet normal 1.047444e-14 -1.000000e+00 0.000000e+00
      outer loop
         vertex -1.305350e+03 -2.450000e+01 1.048900e+02
         vertex -1.293614e+03 -2.450000e+01 1.035391e+02
         vertex -1.293400e+03 -2.450000e+01 1.036890e+02
      endloop
   endfacet
   facet normal 1.047444e-14 -1.000000e+00 0.000000e+00
      outer loop
         vertex -1.305350e+03 -2.450000e+01 1.048900e+02
         vertex -1.293400e+03 -2.450000e+01 1.036890e+02
         vertex -1.292650e+03 -2.450000e+01 1.048900e+02
      endloop
   endfacet
   facet normal 1.047444e-14 -1.000000e+00 0.000000e+00
      outer loop
         vertex -1.292650e+03 -2.450000e+01 1.048900e+02
         vertex -1.293400e+03 -2.450000e+01 1.036890e+02
         vertex -1.293163e+03 -2.450000e+01 1.037995e+02
      endloop
   endfacet
   facet normal 1.047444e-14 -1.000000e+00 0.000000e+00
      outer loop
         vertex -1.293163e+03 -2.450000e+01 1.037995e+02
         vertex -1.292910e+03 -2.450000e+01 1.038672e+02
         vertex -1.292650e+03 -2.450000e+01 1.048900e+02
      endloop
   endfacet
   facet normal 1.047444e-14 -1.000000e+00 0.000000e+00
      outer loop
         vertex -1.292650e+03 -2.450000e+01 1.048900e+02
         vertex -1.292910e+03 -2.450000e+01 1.038672e+02
         vertex -1.292650e+03 -2.450000e+01 1.038900e+02
      endloop
   endfacet
   facet normal 1.047444e-14 -1.000000e+00 0.000000e+00
      outer loop
         vertex -1.292650e+03 -2.450000e+01 1.048900e+02
         vertex -1.292650e+03 -2.450000e+01 1.038900e+02
         vertex -1.292216e+03 -2.450000e+01 1.048520e+02
      endloop
   endfacet
   facet normal 1.047444e-14 -1.000000e+00 0.000000e+00
      outer loop
         vertex -1.292216e+03 -2.450000e+01 1.048520e+02
         vertex -1.292650e+03 -2.450000e+01 1.038900e+02
         vertex -1.292390e+03 -2.450000e+01 1.038672e+02
      endloop
   endfacet
   facet normal 1.047444e-14 -1.000000e+00 0.000000e+00
      outer loop
         vertex -1.292216e+03 -2.450000e+01 1.048520e+02
         vertex -1.292390e+03 -2.450000e+01 1.038672e+02
         vertex -1.291795e+03 -2.450000e+01 1.047392e+02
      endloop
   endfacet
   facet normal 1.047444e-14 -1.000000e+00 0.000000e+00
      outer loop
         vertex -1.291795e+03 -2.450000e+01 1.047392e+02
         vertex -1.292390e+03 -2.450000e+01 1.038672e+02
         vertex -1.292137e+03 -2.450000e+01 1.037995e+02
      endloop
   endfacet
   facet normal 1.047444e-14 -1.000000e+00 0.000000e+00
      outer loop
         vertex -1.291795e+03 -2.450000e+01 1.047392e+02
         vertex -1.292137e+03 -2.450000e+01 1.037995e+02
         vertex -1.291400e+03 -2.450000e+01 1.045551e+02
      endloop
   endfacet
   facet normal 1.047444e-14 -1.000000e+00 0.000000e+00
      outer loop
         vertex -1.291400e+03 -2.450000e+01 1.045551e+02
         vertex -1.292137e+03 -2.450000e+01 1.037995e+02
         vertex -1.291900e+03 -2.450000e+01 1.036890e+02
      endloop
   endfacet
   facet normal 1.047444e-14 -1.000000e+00 0.000000e+00
      outer loop
         vertex -1.291400e+03 -2.450000e+01 1.045551e+02
         vertex -1.291900e+03 -2.450000e+01 1.036890e+02
         vertex -1.291043e+03 -2.450000e+01 1.043051e+02
      endloop
   endfacet
   facet normal 1.047444e-14 -1.000000e+00 0.000000e+00
      outer loop
         vertex -1.291043e+03 -2.450000e+01 1.043051e+02
         vertex -1.291900e+03 -2.450000e+01 1.036890e+02
         vertex -1.291686e+03 -2.450000e+01 1.035391e+02
      endloop
   endfacet
   facet normal 1.047444e-14 -1.000000e+00 0.000000e+00
      outer loop
         vertex -1.291043e+03 -2.450000e+01 1.043051e+02
         vertex -1.291686e+03 -2.450000e+01 1.035391e+02
         vertex -1.290735e+03 -2.450000e+01 1.039970e+02
      endloop
   endfacet
   facet normal 1.047444e-14 -1.000000e+00 0.000000e+00
      outer loop
         vertex -1.290735e+03 -2.450000e+01 1.039970e+02
         vertex -1.291686e+03 -2.450000e+01 1.035391e+02
         vertex -1.291501e+03 -2.450000e+01 1.033542e+02
      endloop
   endfacet
   facet normal 1.047444e-14 -1.000000e+00 0.000000e+00
      outer loop
         vertex -1.290735e+03 -2.450000e+01 1.039970e+02
         vertex -1.291501e+03 -2.450000e+01 1.033542e+02
         vertex -1.290485e+03 -2.450000e+01 1.036400e+02
      endloop
   endfacet
   facet normal 1.047444e-14 -1.000000e+00 0.000000e+00
      outer loop
         vertex -1.290485e+03 -2.450000e+01 1.036400e+02
         vertex -1.291501e+03 -2.450000e+01 1.033542e+02
         vertex -1.291351e+03 -2.450000e+01 1.031400e+02
      endloop
   endfacet
   facet normal 1.047444e-14 -1.000000e+00 0.000000e+00
      outer loop
         vertex -1.290485e+03 -2.450000e+01 1.036400e+02
         vertex -1.291351e+03 -2.450000e+01 1.031400e+02
         vertex -1.290301e+03 -2.450000e+01 1.032451e+02
      endloop
   endfacet
   facet normal 1.047444e-14 -1.000000e+00 0.000000e+00
      outer loop
         vertex -1.290301e+03 -2.450000e+01 1.032451e+02
         vertex -1.291351e+03 -2.450000e+01 1.031400e+02
         vertex -1.291240e+03 -2.450000e+01 1.029030e+02
      endloop
   endfacet
   facet normal 1.047444e-14 -1.000000e+00 0.000000e+00
      outer loop
         vertex -1.290301e+03 -2.450000e+01 1.032451e+02
         vertex -1.291240e+03 -2.450000e+01 1.029030e+02
         vertex -1.290188e+03 -2.450000e+01 1.028241e+02
      endloop
   endfacet
   facet normal 1.047444e-14 -1.000000e+00 0.000000e+00
      outer loop
         vertex -1.290188e+03 -2.450000e+01 1.028241e+02
         vertex -1.291240e+03 -2.450000e+01 1.029030e+02
         vertex -1.291173e+03 -2.450000e+01 1.026505e+02
      endloop
   endfacet
   facet normal 1.047444e-14 -1.000000e+00 0.000000e+00
      outer loop
         vertex -1.290188e+03 -2.450000e+01 1.028241e+02
         vertex -1.291173e+03 -2.450000e+01 1.026505e+02
         vertex -1.290150e+03 -2.450000e+01 1.023900e+02
      endloop
   endfacet
   facet normal 1.047444e-14 -1.000000e+00 0.000000e+00
      outer loop
         vertex -1.290150e+03 -2.450000e+01 1.023900e+02
         vertex -1.291173e+03 -2.450000e+01 1.026505e+02
         vertex -1.291150e+03 -2.450000e+01 1.023900e+02
      endloop
   endfacet
   facet normal 1.047444e-14 -1.000000e+00 0.000000e+00
      outer loop
         vertex -1.290150e+03 -2.450000e+01 1.023900e+02
         vertex -1.291150e+03 -2.450000e+01 1.023900e+02
         vertex -1.290188e+03 -2.450000e+01 1.019559e+02
      endloop
   endfacet
   facet normal 1.047444e-14 -1.000000e+00 0.000000e+00
      outer loop
         vertex -1.290188e+03 -2.450000e+01 1.019559e+02
         vertex -1.291150e+03 -2.450000e+01 1.023900e+02
         vertex -1.291173e+03 -2.450000e+01 1.021295e+02
      endloop
   endfacet
   facet normal 1.047444e-14 -1.000000e+00 0.000000e+00
      outer loop
         vertex -1.290188e+03 -2.450000e+01 1.019559e+02
         vertex -1.291173e+03 -2.450000e+01 1.021295e+02
         vertex -1.290301e+03 -2.450000e+01 1.015349e+02
      endloop
   endfacet
   facet normal 1.047444e-14 -1.000000e+00 0.000000e+00
      outer loop
         vertex -1.290301e+03 -2.450000e+01 1.015349e+02
         vertex -1.291173e+03 -2.450000e+01 1.021295e+02
         vertex -1.291240e+03 -2.450000e+01 1.018770e+02
      endloop
   endfacet
   facet normal 1.047444e-14 -1.000000e+00 0.000000e+00
      outer loop
         vertex -1.290301e+03 -2.450000e+01 1.015349e+02
         vertex -1.291240e+03 -2.450000e+01 1.018770e+02
         vertex -1.290485e+03 -2.450000e+01 1.011400e+02
      endloop
   endfacet
   facet normal 1.047444e-14 -1.000000e+00 0.000000e+00
      outer loop
         vertex -1.290485e+03 -2.450000e+01 1.011400e+02
         vertex -1.291240e+03 -2.450000e+01 1.018770e+02
         vertex -1.291351e+03 -2.450000e+01 1.016400e+02
      endloop
   endfacet
   facet normal 1.047444e-14 -1.000000e+00 0.000000e+00
      outer loop
         vertex -1.290485e+03 -2.450000e+01 1.011400e+02
         vertex -1.291351e+03 -2.450000e+01 1.016400e+02
         vertex -1.290735e+03 -2.450000e+01 1.007830e+02
      endloop
   endfacet
   facet normal 1.047444e-14 -1.000000e+00 0.000000e+00
      outer loop
         vertex -1.290735e+03 -2.450000e+01 1.007830e+02
         vertex -1.291351e+03 -2.450000e+01 1.016400e+02
         vertex -1.291501e+03 -2.450000e+01 1.014258e+02
      endloop
   endfacet
   facet normal 1.047444e-14 -1.000000e+00 0.000000e+00
      outer loop
         vertex -1.290735e+03 -2.450000e+01 1.007830e+02
         vertex -1.291501e+03 -2.450000e+01 1.014258e+02
         vertex -1.291043e+03 -2.450000e+01 1.004749e+02
      endloop
   endfacet
   facet normal 1.047444e-14 -1.000000e+00 0.000000e+00
      outer loop
         vertex -1.291043e+03 -2.450000e+01 1.004749e+02
         vertex -1.291501e+03 -2.450000e+01 1.014258e+02
         vertex -1.291686e+03 -2.450000e+01 1.012409e+02
      endloop
   endfacet
   facet normal 1.047444e-14 -1.000000e+00 0.000000e+00
      outer loop
         vertex -1.291043e+03 -2.450000e+01 1.004749e+02
         vertex -1.291686e+03 -2.450000e+01 1.012409e+02
         vertex -1.291400e+03 -2.450000e+01 1.002249e+02
      endloop
   endfacet
   facet normal 1.047444e-14 -1.000000e+00 0.000000e+00
      outer loop
         vertex -1.291400e+03 -2.450000e+01 1.002249e+02
         vertex -1.291686e+03 -2.450000e+01 1.012409e+02
         vertex -1.291900e+03 -2.450000e+01 1.010910e+02
      endloop
   endfacet
   facet normal 1.047444e-14 -1.000000e+00 0.000000e+00
      outer loop
         vertex -1.291400e+03 -2.450000e+01 1.002249e+02
         vertex -1.291900e+03 -2.450000e+01 1.010910e+02
         vertex -1.291795e+03 -2.450000e+01 1.000408e+02
      endloop
   endfacet
   facet normal 1.047444e-14 -1.000000e+00 0.000000e+00
      outer loop
         vertex -1.291795e+03 -2.450000e+01 1.000408e+02
         vertex -1.291900e+03 -2.450000e+01 1.010910e+02
         vertex -1.292137e+03 -2.450000e+01 1.009805e+02
      endloop
   endfacet
   facet normal 1.047444e-14 -1.000000e+00 0.000000e+00
      outer loop
         vertex -1.291795e+03 -2.450000e+01 1.000408e+02
         vertex -1.292137e+03 -2.450000e+01 1.009805e+02
         vertex -1.292216e+03 -2.450000e+01 9.992798e+01
      endloop
   endfacet
   facet normal 1.047444e-14 -1.000000e+00 0.000000e+00
      outer loop
         vertex -1.292216e+03 -2.450000e+01 9.992798e+01
         vertex -1.292137e+03 -2.450000e+01 1.009805e+02
         vertex -1.292390e+03 -2.450000e+01 1.009128e+02
      endloop
   endfacet
   facet normal 1.047444e-14 -1.000000e+00 0.000000e+00
      outer loop
         vertex -1.292216e+03 -2.450000e+01 9.992798e+01
         vertex -1.292390e+03 -2.450000e+01 1.009128e+02
         vertex -1.292650e+03 -2.450000e+01 9.989000e+01
      endloop
   endfacet
   facet normal 1.047444e-14 -1.000000e+00 0.000000e+00
      outer loop
         vertex -1.292650e+03 -2.450000e+01 9.989000e+01
         vertex -1.292390e+03 -2.450000e+01 1.009128e+02
         vertex -1.292650e+03 -2.450000e+01 1.008900e+02
      endloop
   endfacet
   facet normal 1.047444e-14 -1.000000e+00 0.000000e+00
      outer loop
         vertex -1.292650e+03 -2.450000e+01 9.989000e+01
         vertex -1.292650e+03 -2.450000e+01 1.008900e+02
         vertex -1.292910e+03 -2.450000e+01 1.009128e+02
      endloop
   endfacet
   facet normal -1.047444e-14 1.000000e+00 0.000000e+00
      outer loop
         vertex -1.305350e+03 2.450000e+01 1.048900e+02
         vertex -1.293400e+03 2.450000e+01 1.036890e+02
         vertex -1.293614e+03 2.450000e+01 1.035391e+02
      endloop
   endfacet
   facet normal -1.047444e-14 1.000000e+00 0.000000e+00
      outer loop
         vertex -1.293400e+03 2.450000e+01 1.036890e+02
         vertex -1.305350e+03 2.450000e+01 1.048900e+02
         vertex -1.293163e+03 2.450000e+01 1.037995e+02
      endloop
   endfacet
   facet normal -1.047444e-14 1.000000e+00 0.000000e+00
      outer loop
         vertex -1.293163e+03 2.450000e+01 1.037995e+02
         vertex -1.305350e+03 2.450000e+01 1.048900e+02
         vertex -1.292650e+03 2.450000e+01 1.048900e+02
      endloop
   endfacet
   facet normal -1.047444e-14 1.000000e+00 0.000000e+00
      outer loop
         vertex -1.293163e+03 2.450000e+01 1.037995e+02
         vertex -1.292650e+03 2.450000e+01 1.048900e+02
         vertex -1.292910e+03 2.450000e+01 1.038672e+02
      endloop
   endfacet
   facet normal -1.047444e-14 1.000000e+00 0.000000e+00
      outer loop
         vertex -1.293614e+03 2.450000e+01 1.035391e+02
         vertex -1.293799e+03 2.450000e+01 1.033542e+02
         vertex -1.305350e+03 2.450000e+01 1.048900e+02
      endloop
   endfacet
   facet normal -1.047444e-14 1.000000e+00 0.000000e+00
      outer loop
         vertex -1.305350e+03 2.450000e+01 1.048900e+02
         vertex -1.293799e+03 2.450000e+01 1.033542e+02
         vertex -1.293949e+03 2.450000e+01 1.031400e+02
      endloop
   endfacet
   facet normal -1.047444e-14 1.000000e+00 0.000000e+00
      outer loop
         vertex -1.305350e+03 2.450000e+01 1.048900e+02
         vertex -1.293949e+03 2.450000e+01 1.031400e+02
         vertex -1.294060e+03 2.450000e+01 1.029030e+02
      endloop
   endfacet
   facet normal -1.047444e-14 1.000000e+00 0.000000e+00
      outer loop
         vertex -1.294060e+03 2.450000e+01 1.018770e+02
         vertex -1.293949e+03 2.450000e+01 1.016400e+02
         vertex -1.305350e+03 2.450000e+01 9.989000e+01
      endloop
   endfacet
   facet normal -1.047444e-14 1.000000e+00 0.000000e+00
      outer loop
         vertex -1.305350e+03 2.450000e+01 9.989000e+01
         vertex -1.293949e+03 2.450000e+01 1.016400e+02
         vertex -1.293799e+03 2.450000e+01 1.014258e+02
      endloop
   endfacet
   facet normal -1.047444e-14 1.000000e+00 -0.000000e+00
      outer loop
         vertex -1.293163e+03 2.450000e+01 1.009805e+02
         vertex -1.292650e+03 2.450000e+01 9.989000e+01
         vertex -1.293400e+03 2.450000e+01 1.010910e+02
      endloop
   endfacet
   facet normal -1.047444e-14 1.000000e+00 0.000000e+00
      outer loop
         vertex -1.293400e+03 2.450000e+01 1.010910e+02
         vertex -1.292650e+03 2.450000e+01 9.989000e+01
         vertex -1.305350e+03 2.450000e+01 9.989000e+01
      endloop
   endfacet
   facet normal -1.047444e-14 1.000000e+00 0.000000e+00
      outer loop
         vertex -1.293400e+03 2.450000e+01 1.010910e+02
         vertex -1.305350e+03 2.450000e+01 9.989000e+01
         vertex -1.293614e+03 2.450000e+01 1.012409e+02
      endloop
   endfacet
   facet normal -1.047444e-14 1.000000e+00 0.000000e+00
      outer loop
         vertex -1.293614e+03 2.450000e+01 1.012409e+02
         vertex -1.305350e+03 2.450000e+01 9.989000e+01
         vertex -1.293799e+03 2.450000e+01 1.014258e+02
      endloop
   endfacet
   facet normal -1.047444e-14 1.000000e+00 0.000000e+00
      outer loop
         vertex -1.294060e+03 2.450000e+01 1.029030e+02
         vertex -1.294127e+03 2.450000e+01 1.026505e+02
         vertex -1.305350e+03 2.450000e+01 1.048900e+02
      endloop
   endfacet
   facet normal -1.047444e-14 1.000000e+00 0.000000e+00
      outer loop
         vertex -1.305350e+03 2.450000e+01 1.048900e+02
         vertex -1.294127e+03 2.450000e+01 1.026505e+02
         vertex -1.294150e+03 2.450000e+01 1.023900e+02
      endloop
   endfacet
   facet normal -1.047444e-14 1.000000e+00 0.000000e+00
      outer loop
         vertex -1.305350e+03 2.450000e+01 1.048900e+02
         vertex -1.294150e+03 2.450000e+01 1.023900e+02
         vertex -1.305350e+03 2.450000e+01 9.989000e+01
      endloop
   endfacet
   facet normal -1.047444e-14 1.000000e+00 0.000000e+00
      outer loop
         vertex -1.305350e+03 2.450000e+01 9.989000e+01
         vertex -1.294150e+03 2.450000e+01 1.023900e+02
         vertex -1.294127e+03 2.450000e+01 1.021295e+02
      endloop
   endfacet
   facet normal -1.047444e-14 1.000000e+00 0.000000e+00
      outer loop
         vertex -1.305350e+03 2.450000e+01 9.989000e+01
         vertex -1.294127e+03 2.450000e+01 1.021295e+02
         vertex -1.294060e+03 2.450000e+01 1.018770e+02
      endloop
   endfacet
   facet normal -1.047444e-14 1.000000e+00 0.000000e+00
      outer loop
         vertex -1.293163e+03 2.450000e+01 1.009805e+02
         vertex -1.292910e+03 2.450000e+01 1.009128e+02
         vertex -1.292650e+03 2.450000e+01 9.989000e+01
      endloop
   endfacet
   facet normal -1.047444e-14 1.000000e+00 0.000000e+00
      outer loop
         vertex -1.292650e+03 2.450000e+01 9.989000e+01
         vertex -1.292910e+03 2.450000e+01 1.009128e+02
         vertex -1.292650e+03 2.450000e+01 1.008900e+02
      endloop
   endfacet
   facet normal -1.047444e-14 1.000000e+00 0.000000e+00
      outer loop
         vertex -1.292650e+03 2.450000e+01 9.989000e+01
         vertex -1.292650e+03 2.450000e+01 1.008900e+02
         vertex -1.292216e+03 2.450000e+01 9.992798e+01
      endloop
   endfacet
   facet normal -1.047444e-14 1.000000e+00 0.000000e+00
      outer loop
         vertex -1.292216e+03 2.450000e+01 9.992798e+01
         vertex -1.292650e+03 2.450000e+01 1.008900e+02
         vertex -1.292390e+03 2.450000e+01 1.009128e+02
      endloop
   endfacet
   facet normal -1.047444e-14 1.000000e+00 0.000000e+00
      outer loop
         vertex -1.292216e+03 2.450000e+01 9.992798e+01
         vertex -1.292390e+03 2.450000e+01 1.009128e+02
         vertex -1.291795e+03 2.450000e+01 1.000408e+02
      endloop
   endfacet
   facet normal -1.047444e-14 1.000000e+00 0.000000e+00
      outer loop
         vertex -1.291795e+03 2.450000e+01 1.000408e+02
         vertex -1.292390e+03 2.450000e+01 1.009128e+02
         vertex -1.292137e+03 2.450000e+01 1.009805e+02
      endloop
   endfacet
   facet normal -1.047444e-14 1.000000e+00 0.000000e+00
      outer loop
         vertex -1.291795e+03 2.450000e+01 1.000408e+02
         vertex -1.292137e+03 2.450000e+01 1.009805e+02
         vertex -1.291400e+03 2.450000e+01 1.002249e+02
      endloop
   endfacet
   facet normal -1.047444e-14 1.000000e+00 0.000000e+00
      outer loop
         vertex -1.291400e+03 2.450000e+01 1.002249e+02
         vertex -1.292137e+03 2.450000e+01 1.009805e+02
         vertex -1.291900e+03 2.450000e+01 1.010910e+02
      endloop
   endfacet
   facet normal -1.047444e-14 1.000000e+00 0.000000e+00
      outer loop
         vertex -1.291400e+03 2.450000e+01 1.002249e+02
         vertex -1.291900e+03 2.450000e+01 1.010910e+02
         vertex -1.291043e+03 2.450000e+01 1.004749e+02
      endloop
   endfacet
   facet normal -1.047444e-14 1.000000e+00 0.000000e+00
      outer loop
         vertex -1.291043e+03 2.450000e+01 1.004749e+02
         vertex -1.291900e+03 2.450000e+01 1.010910e+02
         vertex -1.291686e+03 2.450000e+01 1.012409e+02
      endloop
   endfacet
   facet normal -1.047444e-14 1.000000e+00 0.000000e+00
      outer loop
         vertex -1.291043e+03 2.450000e+01 1.004749e+02
         vertex -1.291686e+03 2.450000e+01 1.012409e+02
         vertex -1.290735e+03 2.450000e+01 1.007830e+02
      endloop
   endfacet
   facet normal -1.047444e-14 1.000000e+00 0.000000e+00
      outer loop
         vertex -1.290735e+03 2.450000e+01 1.007830e+02
         vertex -1.291686e+03 2.450000e+01 1.012409e+02
         vertex -1.291501e+03 2.450000e+01 1.014258e+02
      endloop
   endfacet
   facet normal -1.047444e-14 1.000000e+00 0.000000e+00
      outer loop
         vertex -1.290735e+03 2.450000e+01 1.007830e+02
         vertex -1.291501e+03 2.450000e+01 1.014258e+02
         vertex -1.290485e+03 2.450000e+01 1.011400e+02
      endloop
   endfacet
   facet normal -1.047444e-14 1.000000e+00 0.000000e+00
      outer loop
         vertex -1.290485e+03 2.450000e+01 1.011400e+02
         vertex -1.291501e+03 2.450000e+01 1.014258e+02
         vertex -1.291351e+03 2.450000e+01 1.016400e+02
      endloop
   endfacet
   facet normal -1.047444e-14 1.000000e+00 0.000000e+00
      outer loop
         vertex -1.290485e+03 2.450000e+01 1.011400e+02
         vertex -1.291351e+03 2.450000e+01 1.016400e+02
         vertex -1.290301e+03 2.450000e+01 1.015349e+02
      endloop
   endfacet
   facet normal -1.047444e-14 1.000000e+00 0.000000e+00
      outer loop
         vertex -1.290301e+03 2.450000e+01 1.015349e+02
         vertex -1.291351e+03 2.450000e+01 1.016400e+02
         vertex -1.291240e+03 2.450000e+01 1.018770e+02
      endloop
   endfacet
   facet normal -1.047444e-14 1.000000e+00 0.000000e+00
      outer loop
         vertex -1.290301e+03 2.450000e+01 1.015349e+02
         vertex -1.291240e+03 2.450000e+01 1.018770e+02
         vertex -1.290188e+03 2.450000e+01 1.019559e+02
      endloop
   endfacet
   facet normal -1.047444e-14 1.000000e+00 0.000000e+00
      outer loop
         vertex -1.290188e+03 2.450000e+01 1.019559e+02
         vertex -1.291240e+03 2.450000e+01 1.018770e+02
         vertex -1.291173e+03 2.450000e+01 1.021295e+02
      endloop
   endfacet
   facet normal -1.047444e-14 1.000000e+00 0.000000e+00
      outer loop
         vertex -1.290188e+03 2.450000e+01 1.019559e+02
         vertex -1.291173e+03 2.450000e+01 1.021295e+02
         vertex -1.290150e+03 2.450000e+01 1.023900e+02
      endloop
   endfacet
   facet normal -1.047444e-14 1.000000e+00 0.000000e+00
      outer loop
         vertex -1.290150e+03 2.450000e+01 1.023900e+02
         vertex -1.291173e+03 2.450000e+01 1.021295e+02
         vertex -1.291150e+03 2.450000e+01 1.023900e+02
      endloop
   endfacet
   facet normal -1.047444e-14 1.000000e+00 0.000000e+00
      outer loop
         vertex -1.290150e+03 2.450000e+01 1.023900e+02
         vertex -1.291150e+03 2.450000e+01 1.023900e+02
         vertex -1.290188e+03 2.450000e+01 1.028241e+02
      endloop
   endfacet
   facet normal -1.047444e-14 1.000000e+00 0.000000e+00
      outer loop
         vertex -1.290188e+03 2.450000e+01 1.028241e+02
         vertex -1.291150e+03 2.450000e+01 1.023900e+02
         vertex -1.291173e+03 2.450000e+01 1.026505e+02
      endloop
   endfacet
   facet normal -1.047444e-14 1.000000e+00 0.000000e+00
      outer loop
         vertex -1.290188e+03 2.450000e+01 1.028241e+02
         vertex -1.291173e+03 2.450000e+01 1.026505e+02
         vertex -1.290301e+03 2.450000e+01 1.032451e+02
      endloop
   endfacet
   facet normal -1.047444e-14 1.000000e+00 0.000000e+00
      outer loop
         vertex -1.290301e+03 2.450000e+01 1.032451e+02
         vertex -1.291173e+03 2.450000e+01 1.026505e+02
         vertex -1.291240e+03 2.450000e+01 1.029030e+02
      endloop
   endfacet
   facet normal -1.047444e-14 1.000000e+00 0.000000e+00
      outer loop
         vertex -1.290301e+03 2.450000e+01 1.032451e+02
         vertex -1.291240e+03 2.450000e+01 1.029030e+02
         vertex -1.290485e+03 2.450000e+01 1.036400e+02
      endloop
   endfacet
   facet normal -1.047444e-14 1.000000e+00 0.000000e+00
      outer loop
         vertex -1.290485e+03 2.450000e+01 1.036400e+02
         vertex -1.291240e+03 2.450000e+01 1.029030e+02
         vertex -1.291351e+03 2.450000e+01 1.031400e+02
      endloop
   endfacet
   facet normal -1.047444e-14 1.000000e+00 0.000000e+00
      outer loop
         vertex -1.290485e+03 2.450000e+01 1.036400e+02
         vertex -1.291351e+03 2.450000e+01 1.031400e+02
         vertex -1.290735e+03 2.450000e+01 1.039970e+02
      endloop
   endfacet
   facet normal -1.047444e-14 1.000000e+00 0.000000e+00
      outer loop
         vertex -1.290735e+03 2.450000e+01 1.039970e+02
         vertex -1.291351e+03 2.450000e+01 1.031400e+02
         vertex -1.291501e+03 2.450000e+01 1.033542e+02
      endloop
   endfacet
   facet normal -1.047444e-14 1.000000e+00 0.000000e+00
      outer loop
         vertex -1.290735e+03 2.450000e+01 1.039970e+02
         vertex -1.291501e+03 2.450000e+01 1.033542e+02
         vertex -1.291043e+03 2.450000e+01 1.043051e+02
      endloop
   endfacet
   facet normal -1.047444e-14 1.000000e+00 0.000000e+00
      outer loop
         vertex -1.291043e+03 2.450000e+01 1.043051e+02
         vertex -1.291501e+03 2.450000e+01 1.033542e+02
         vertex -1.291686e+03 2.450000e+01 1.035391e+02
      endloop
   endfacet
   facet normal -1.047444e-14 1.000000e+00 0.000000e+00
      outer loop
         vertex -1.291043e+03 2.450000e+01 1.043051e+02
         vertex -1.291686e+03 2.450000e+01 1.035391e+02
         vertex -1.291400e+03 2.450000e+01 1.045551e+02
      endloop
   endfacet
   facet normal -1.047444e-14 1.000000e+00 0.000000e+00
      outer loop
         vertex -1.291400e+03 2.450000e+01 1.045551e+02
         vertex -1.291686e+03 2.450000e+01 1.035391e+02
         vertex -1.291900e+03 2.450000e+01 1.036890e+02
      endloop
   endfacet
   facet normal -1.047444e-14 1.000000e+00 0.000000e+00
      outer loop
         vertex -1.291400e+03 2.450000e+01 1.045551e+02
         vertex -1.291900e+03 2.450000e+01 1.036890e+02
         vertex -1.291795e+03 2.450000e+01 1.047392e+02
      endloop
   endfacet
   facet normal -1.047444e-14 1.000000e+00 0.000000e+00
      outer loop
         vertex -1.291795e+03 2.450000e+01 1.047392e+02
         vertex -1.291900e+03 2.450000e+01 1.036890e+02
         vertex -1.292137e+03 2.450000e+01 1.037995e+02
      endloop
   endfacet
   facet normal -1.047444e-14 1.000000e+00 0.000000e+00
      outer loop
         vertex -1.291795e+03 2.450000e+01 1.047392e+02
         vertex -1.292137e+03 2.450000e+01 1.037995e+02
         vertex -1.292216e+03 2.450000e+01 1.048520e+02
      endloop
   endfacet
   facet normal -1.047444e-14 1.000000e+00 0.000000e+00
      outer loop
         vertex -1.292216e+03 2.450000e+01 1.048520e+02
         vertex -1.292137e+03 2.450000e+01 1.037995e+02
         vertex -1.292390e+03 2.450000e+01 1.038672e+02
      endloop
   endfacet
   facet normal -1.047444e-14 1.000000e+00 0.000000e+00
      outer loop
         vertex -1.292216e+03 2.450000e+01 1.048520e+02
         vertex -1.292390e+03 2.450000e+01 1.038672e+02
         vertex -1.292650e+03 2.450000e+01 1.048900e+02
      endloop
   endfacet
   facet normal -1.047444e-14 1.000000e+00 0.000000e+00
      outer loop
         vertex -1.292650e+03 2.450000e+01 1.048900e+02
         vertex -1.292390e+03 2.450000e+01 1.038672e+02
         vertex -1.292650e+03 2.450000e+01 1.038900e+02
      endloop
   endfacet
   facet normal -1.047444e-14 1.000000e+00 0.000000e+00
      outer loop
         vertex -1.292650e+03 2.450000e+01 1.048900e+02
         vertex -1.292650e+03 2.450000e+01 1.038900e+02
         vertex -1.292910e+03 2.450000e+01 1.038672e+02
      endloop
   endfacet
   facet normal -1.000000e+00 -1.047444e-14 -0.000000e+00
      outer loop
         vertex -1.305350e+03 -2.450000e+01 1.048900e+02
         vertex -1.305350e+03 2.450000e+01 1.048900e+02
         vertex -1.305350e+03 -2.450000e+01 9.989000e+01
      endloop
   endfacet
   facet normal -1.000000e+00 -1.047444e-14 0.000000e+00
      outer loop
         vertex -1.305350e+03 -2.450000e+01 9.989000e+01
         vertex -1.305350e+03 2.450000e+01 1.048900e+02
         vertex -1.305350e+03 2.450000e+01 9.989000e+01
      endloop
   endfacet
   facet normal 0.000000e+00 0.000000e+00 1.000000e+00
      outer loop
         vertex -1.292650e+03 2.450000e+01 1.048900e+02
         vertex -1.305350e+03 2.450000e+01 1.048900e+02
         vertex -1.292650e+03 -2.450000e+01 1.048900e+02
      endloop
   endfacet
   facet normal 0.000000e+00 0.000000e+00 1.000000e+00
      outer loop
         vertex -1.292650e+03 -2.450000e+01 1.048900e+02
         vertex -1.305350e+03 2.450000e+01 1.048900e+02
         vertex -1.305350e+03 -2.450000e+01 1.048900e+02
      endloop
   endfacet
   facet normal 0.000000e+00 0.000000e+00 -1.000000e+00
      outer loop
         vertex -1.305350e+03 2.450000e+01 9.989000e+01
         vertex -1.292650e+03 2.450000e+01 9.989000e+01
         vertex -1.305350e+03 -2.450000e+01 9.989000e+01
      endloop
   endfacet
   facet normal 0.000000e+00 0.000000e+00 -1.000000e+00
      outer loop
         vertex -1.305350e+03 -2.450000e+01 9.989000e+01
         vertex -1.292650e+03 2.450000e+01 9.989000e+01
         vertex -1.292650e+03 -2.450000e+01 9.989000e+01
      endloop
   endfacet
   facet normal 8.715596e-02 9.129102e-16 9.961947e-01
      outer loop
         vertex -1.292650e+03 2.450000e+01 1.048900e+02
         vertex -1.292650e+03 -2.450000e+01 1.048900e+02
         vertex -1.292216e+03 -2.450000e+01 1.048520e+02
      endloop
   endfacet
   facet normal 8.715596e-02 9.129102e-16 9.961947e-01
      outer loop
         vertex -1.292650e+03 2.450000e+01 1.048900e+02
         vertex -1.292216e+03 -2.450000e+01 1.048520e+02
         vertex -1.292216e+03 2.450000e+01 1.048520e+02
      endloop
   endfacet
   facet normal 2.588191e-01 2.710986e-15 9.659258e-01
      outer loop
         vertex -1.292216e+03 2.450000e+01 1.048520e+02
         vertex -1.292216e+03 -2.450000e+01 1.048520e+02
         vertex -1.291795e+03 -2.450000e+01 1.047392e+02
      endloop
   endfacet
   facet normal 2.588191e-01 2.710986e-15 9.659258e-01
      outer loop
         vertex -1.292216e+03 2.450000e+01 1.048520e+02
         vertex -1.291795e+03 -2.450000e+01 1.047392e+02
         vertex -1.291795e+03 2.450000e+01 1.047392e+02
      endloop
   endfacet
   facet normal 4.226175e-01 4.426683e-15 9.063082e-01
      outer loop
         vertex -1.291795e+03 2.450000e+01 1.047392e+02
         vertex -1.291795e+03 -2.450000e+01 1.047392e+02
         vertex -1.291400e+03 -2.450000e+01 1.045551e+02
      endloop
   endfacet
   facet normal 4.226175e-01 4.426683e-15 9.063082e-01
      outer loop
         vertex -1.291795e+03 2.450000e+01 1.047392e+02
         vertex -1.291400e+03 -2.450000e+01 1.045551e+02
         vertex -1.291400e+03 2.450000e+01 1.045551e+02
      endloop
   endfacet
   facet normal 5.735772e-01 6.007903e-15 8.191515e-01
      outer loop
         vertex -1.291400e+03 2.450000e+01 1.045551e+02
         vertex -1.291400e+03 -2.450000e+01 1.045551e+02
         vertex -1.291043e+03 -2.450000e+01 1.043051e+02
      endloop
   endfacet
   facet normal 5.735772e-01 6.007903e-15 8.191515e-01
      outer loop
         vertex -1.291400e+03 2.450000e+01 1.045551e+02
         vertex -1.291043e+03 -2.450000e+01 1.043051e+02
         vertex -1.291043e+03 2.450000e+01 1.043051e+02
      endloop
   endfacet
   facet normal 7.071068e-01 7.406550e-15 7.071068e-01
      outer loop
         vertex -1.291043e+03 2.450000e+01 1.043051e+02
         vertex -1.291043e+03 -2.450000e+01 1.043051e+02
         vertex -1.290735e+03 -2.450000e+01 1.039970e+02
      endloop
   endfacet
   facet normal 7.071068e-01 7.406550e-15 7.071068e-01
      outer loop
         vertex -1.291043e+03 2.450000e+01 1.043051e+02
         vertex -1.290735e+03 -2.450000e+01 1.039970e+02
         vertex -1.290735e+03 2.450000e+01 1.039970e+02
      endloop
   endfacet
   facet normal 8.191515e-01 8.580157e-15 5.735772e-01
      outer loop
         vertex -1.290735e+03 2.450000e+01 1.039970e+02
         vertex -1.290735e+03 -2.450000e+01 1.039970e+02
         vertex -1.290485e+03 -2.450000e+01 1.036400e+02
      endloop
   endfacet
   facet normal 8.191515e-01 8.580157e-15 5.735772e-01
      outer loop
         vertex -1.290735e+03 2.450000e+01 1.039970e+02
         vertex -1.290485e+03 -2.450000e+01 1.036400e+02
         vertex -1.290485e+03 2.450000e+01 1.036400e+02
      endloop
   endfacet
   facet normal 9.063077e-01 9.493069e-15 4.226185e-01
      outer loop
         vertex -1.290485e+03 2.450000e+01 1.036400e+02
         vertex -1.290485e+03 -2.450000e+01 1.036400e+02
         vertex -1.290301e+03 -2.450000e+01 1.032451e+02
      endloop
   endfacet
   facet normal 9.063077e-01 9.493069e-15 4.226185e-01
      outer loop
         vertex -1.290485e+03 2.450000e+01 1.036400e+02
         vertex -1.290301e+03 -2.450000e+01 1.032451e+02
         vertex -1.290301e+03 2.450000e+01 1.032451e+02
      endloop
   endfacet
   facet normal 9.659259e-01 1.011754e-14 2.588189e-01
      outer loop
         vertex -1.290301e+03 2.450000e+01 1.032451e+02
         vertex -1.290301e+03 -2.450000e+01 1.032451e+02
         vertex -1.290188e+03 -2.450000e+01 1.028241e+02
      endloop
   endfacet
   facet normal 9.659259e-01 1.011754e-14 2.588189e-01
      outer loop
         vertex -1.290301e+03 2.450000e+01 1.032451e+02
         vertex -1.290188e+03 -2.450000e+01 1.028241e+02
         vertex -1.290188e+03 2.450000e+01 1.028241e+02
      endloop
   endfacet
   facet normal 9.961948e-01 1.043459e-14 8.715495e-02
      outer loop
         vertex -1.290188e+03 2.450000e+01 1.028241e+02
         vertex -1.290188e+03 -2.450000e+01 1.028241e+02
         vertex -1.290150e+03 -2.450000e+01 1.023900e+02
      endloop
   endfacet
   facet normal 9.961948e-01 1.043459e-14 8.715495e-02
      outer loop
         vertex -1.290188e+03 2.450000e+01 1.028241e+02
         vertex -1.290150e+03 -2.450000e+01 1.023900e+02
         vertex -1.290150e+03 2.450000e+01 1.023900e+02
      endloop
   endfacet
   facet normal 9.961948e-01 1.043459e-14 -8.715495e-02
      outer loop
         vertex -1.290150e+03 2.450000e+01 1.023900e+02
         vertex -1.290150e+03 -2.450000e+01 1.023900e+02
         vertex -1.290188e+03 -2.450000e+01 1.019559e+02
      endloop
   endfacet
   facet normal 9.961948e-01 1.043459e-14 -8.715495e-02
      outer loop
         vertex -1.290150e+03 2.450000e+01 1.023900e+02
         vertex -1.290188e+03 -2.450000e+01 1.019559e+02
         vertex -1.290188e+03 2.450000e+01 1.019559e+02
      endloop
   endfacet
   facet normal 9.659258e-01 1.011754e-14 -2.588191e-01
      outer loop
         vertex -1.290188e+03 2.450000e+01 1.019559e+02
         vertex -1.290188e+03 -2.450000e+01 1.019559e+02
         vertex -1.290301e+03 -2.450000e+01 1.015349e+02
      endloop
   endfacet
   facet normal 9.659258e-01 1.011754e-14 -2.588191e-01
      outer loop
         vertex -1.290188e+03 2.450000e+01 1.019559e+02
         vertex -1.290301e+03 -2.450000e+01 1.015349e+02
         vertex -1.290301e+03 2.450000e+01 1.015349e+02
      endloop
   endfacet
   facet normal 9.063077e-01 9.493070e-15 -4.226183e-01
      outer loop
         vertex -1.290301e+03 2.450000e+01 1.015349e+02
         vertex -1.290301e+03 -2.450000e+01 1.015349e+02
         vertex -1.290485e+03 -2.450000e+01 1.011400e+02
      endloop
   endfacet
   facet normal 9.063077e-01 9.493070e-15 -4.226183e-01
      outer loop
         vertex -1.290301e+03 2.450000e+01 1.015349e+02
         vertex -1.290485e+03 -2.450000e+01 1.011400e+02
         vertex -1.290485e+03 2.450000e+01 1.011400e+02
      endloop
   endfacet
   facet normal 8.191514e-01 8.580155e-15 -5.735774e-01
      outer loop
         vertex -1.290485e+03 2.450000e+01 1.011400e+02
         vertex -1.290485e+03 -2.450000e+01 1.011400e+02
         vertex -1.290735e+03 -2.450000e+01 1.007830e+02
      endloop
   endfacet
   facet normal 8.191514e-01 8.580155e-15 -5.735774e-01
      outer loop
         vertex -1.290485e+03 2.450000e+01 1.011400e+02
         vertex -1.290735e+03 -2.450000e+01 1.007830e+02
         vertex -1.290735e+03 2.450000e+01 1.007830e+02
      endloop
   endfacet
   facet normal 7.071068e-01 7.406550e-15 -7.071068e-01
      outer loop
         vertex -1.290735e+03 2.450000e+01 1.007830e+02
         vertex -1.290735e+03 -2.450000e+01 1.007830e+02
         vertex -1.291043e+03 -2.450000e+01 1.004749e+02
      endloop
   endfacet
   facet normal 7.071068e-01 7.406550e-15 -7.071068e-01
      outer loop
         vertex -1.290735e+03 2.450000e+01 1.007830e+02
         vertex -1.291043e+03 -2.450000e+01 1.004749e+02
         vertex -1.291043e+03 2.450000e+01 1.004749e+02
      endloop
   endfacet
   facet normal 5.735770e-01 6.007901e-15 -8.191516e-01
      outer loop
         vertex -1.291043e+03 2.450000e+01 1.004749e+02
         vertex -1.291043e+03 -2.450000e+01 1.004749e+02
         vertex -1.291400e+03 -2.450000e+01 1.002249e+02
      endloop
   endfacet
   facet normal 5.735770e-01 6.007901e-15 -8.191516e-01
      outer loop
         vertex -1.291043e+03 2.450000e+01 1.004749e+02
         vertex -1.291400e+03 -2.450000e+01 1.002249e+02
         vertex -1.291400e+03 2.450000e+01 1.002249e+02
      endloop
   endfacet
   facet normal 4.226182e-01 4.426691e-15 -9.063078e-01
      outer loop
         vertex -1.291400e+03 2.450000e+01 1.002249e+02
         vertex -1.291400e+03 -2.450000e+01 1.002249e+02
         vertex -1.291795e+03 -2.450000e+01 1.000408e+02
      endloop
   endfacet
   facet normal 4.226182e-01 4.426691e-15 -9.063078e-01
      outer loop
         vertex -1.291400e+03 2.450000e+01 1.002249e+02
         vertex -1.291795e+03 -2.450000e+01 1.000408e+02
         vertex -1.291795e+03 2.450000e+01 1.000408e+02
      endloop
   endfacet
   facet normal 2.588191e-01 2.710986e-15 -9.659258e-01
      outer loop
         vertex -1.291795e+03 2.450000e+01 1.000408e+02
         vertex -1.291795e+03 -2.450000e+01 1.000408e+02
         vertex -1.292216e+03 -2.450000e+01 9.992798e+01
      endloop
   endfacet
   facet normal 2.588191e-01 2.710986e-15 -9.659258e-01
      outer loop
         vertex -1.291795e+03 2.450000e+01 1.000408e+02
         vertex -1.292216e+03 -2.450000e+01 9.992798e+01
         vertex -1.292216e+03 2.450000e+01 9.992798e+01
      endloop
   endfacet
   facet normal 8.715570e-02 9.129075e-16 -9.961947e-01
      outer loop
         vertex -1.292216e+03 2.450000e+01 9.992798e+01
         vertex -1.292216e+03 -2.450000e+01 9.992798e+01
         vertex -1.292650e+03 -2.450000e+01 9.989000e+01
      endloop
   endfacet
   facet normal 8.715570e-02 9.129075e-16 -9.961947e-01
      outer loop
         vertex -1.292216e+03 2.450000e+01 9.992798e+01
         vertex -1.292650e+03 -2.450000e+01 9.989000e+01
         vertex -1.292650e+03 2.450000e+01 9.989000e+01
      endloop
   endfacet
   facet normal -8.715546e-02 -9.129050e-16 9.961947e-01
      outer loop
         vertex -1.292650e+03 2.450000e+01 1.008900e+02
         vertex -1.292650e+03 -2.450000e+01 1.008900e+02
         vertex -1.292390e+03 2.450000e+01 1.009128e+02
      endloop
   endfacet
   facet normal -8.715546e-02 -9.129050e-16 9.961947e-01
      outer loop
         vertex -1.292390e+03 2.450000e+01 1.009128e+02
         vertex -1.292650e+03 -2.450000e+01 1.008900e+02
         vertex -1.292390e+03 -2.450000e+01 1.009128e+02
      endloop
   endfacet
   facet normal -2.588191e-01 -2.710986e-15 9.659258e-01
      outer loop
         vertex -1.292390e+03 2.450000e+01 1.009128e+02
         vertex -1.292390e+03 -2.450000e+01 1.009128e+02
         vertex -1.292137e+03 2.450000e+01 1.009805e+02
      endloop
   endfacet
   facet normal -2.588191e-01 -2.710986e-15 9.659258e-01
      outer loop
         vertex -1.292137e+03 2.450000e+01 1.009805e+02
         vertex -1.292390e+03 -2.450000e+01 1.009128e+02
         vertex -1.292137e+03 -2.450000e+01 1.009805e+02
      endloop
   endfacet
   facet normal -4.226181e-01 -4.426690e-15 9.063078e-01
      outer loop
         vertex -1.292137e+03 2.450000e+01 1.009805e+02
         vertex -1.292137e+03 -2.450000e+01 1.009805e+02
         vertex -1.291900e+03 2.450000e+01 1.010910e+02
      endloop
   endfacet
   facet normal -4.226181e-01 -4.426690e-15 9.063078e-01
      outer loop
         vertex -1.291900e+03 2.450000e+01 1.010910e+02
         vertex -1.292137e+03 -2.450000e+01 1.009805e+02
         vertex -1.291900e+03 -2.450000e+01 1.010910e+02
      endloop
   endfacet
   facet normal -5.735765e-01 -6.007895e-15 8.191520e-01
      outer loop
         vertex -1.291900e+03 2.450000e+01 1.010910e+02
         vertex -1.291900e+03 -2.450000e+01 1.010910e+02
         vertex -1.291686e+03 2.450000e+01 1.012409e+02
      endloop
   endfacet
   facet normal -5.735765e-01 -6.007895e-15 8.191520e-01
      outer loop
         vertex -1.291686e+03 2.450000e+01 1.012409e+02
         vertex -1.291900e+03 -2.450000e+01 1.010910e+02
         vertex -1.291686e+03 -2.450000e+01 1.012409e+02
      endloop
   endfacet
   facet normal -7.071068e-01 -7.406550e-15 7.071068e-01
      outer loop
         vertex -1.291686e+03 2.450000e+01 1.012409e+02
         vertex -1.291686e+03 -2.450000e+01 1.012409e+02
         vertex -1.291501e+03 2.450000e+01 1.014258e+02
      endloop
   endfacet
   facet normal -7.071068e-01 -7.406550e-15 7.071068e-01
      outer loop
         vertex -1.291501e+03 2.450000e+01 1.014258e+02
         vertex -1.291686e+03 -2.450000e+01 1.012409e+02
         vertex -1.291501e+03 -2.450000e+01 1.014258e+02
      endloop
   endfacet
   facet normal -8.191523e-01 -8.580165e-15 5.735760e-01
      outer loop
         vertex -1.291501e+03 2.450000e+01 1.014258e+02
         vertex -1.291501e+03 -2.450000e+01 1.014258e+02
         vertex -1.291351e+03 2.450000e+01 1.016400e+02
      endloop
   endfacet
   facet normal -8.191523e-01 -8.580165e-15 5.735760e-01
      outer loop
         vertex -1.291351e+03 2.450000e+01 1.016400e+02
         vertex -1.291501e+03 -2.450000e+01 1.014258e+02
         vertex -1.291351e+03 -2.450000e+01 1.016400e+02
      endloop
   endfacet
   facet normal -9.063075e-01 -9.493067e-15 4.226188e-01
      outer loop
         vertex -1.291351e+03 2.450000e+01 1.016400e+02
         vertex -1.291351e+03 -2.450000e+01 1.016400e+02
         vertex -1.291240e+03 2.450000e+01 1.018770e+02
      endloop
   endfacet
   facet normal -9.063075e-01 -9.493067e-15 4.226188e-01
      outer loop
         vertex -1.291240e+03 2.450000e+01 1.018770e+02
         vertex -1.291351e+03 -2.450000e+01 1.016400e+02
         vertex -1.291240e+03 -2.450000e+01 1.018770e+02
      endloop
   endfacet
   facet normal -9.659263e-01 -1.011754e-14 2.588174e-01
      outer loop
         vertex -1.291240e+03 2.450000e+01 1.018770e+02
         vertex -1.291240e+03 -2.450000e+01 1.018770e+02
         vertex -1.291173e+03 2.450000e+01 1.021295e+02
      endloop
   endfacet
   facet normal -9.659263e-01 -1.011754e-14 2.588174e-01
      outer loop
         vertex -1.291173e+03 2.450000e+01 1.021295e+02
         vertex -1.291240e+03 -2.450000e+01 1.018770e+02
         vertex -1.291173e+03 -2.450000e+01 1.021295e+02
      endloop
   endfacet
   facet normal -9.961946e-01 -1.043459e-14 8.715635e-02
      outer loop
         vertex -1.291173e+03 2.450000e+01 1.021295e+02
         vertex -1.291173e+03 -2.450000e+01 1.021295e+02
         vertex -1.291150e+03 2.450000e+01 1.023900e+02
      endloop
   endfacet
   facet normal -9.961946e-01 -1.043459e-14 8.715635e-02
      outer loop
         vertex -1.291150e+03 2.450000e+01 1.023900e+02
         vertex -1.291173e+03 -2.450000e+01 1.021295e+02
         vertex -1.291150e+03 -2.450000e+01 1.023900e+02
      endloop
   endfacet
   facet normal -9.961946e-01 -1.043459e-14 -8.715635e-02
      outer loop
         vertex -1.291150e+03 2.450000e+01 1.023900e+02
         vertex -1.291150e+03 -2.450000e+01 1.023900e+02
         vertex -1.291173e+03 2.450000e+01 1.026505e+02
      endloop
   endfacet
   facet normal -9.961946e-01 -1.043459e-14 -8.715635e-02
      outer loop
         vertex -1.291173e+03 2.450000e+01 1.026505e+02
         vertex -1.291150e+03 -2.450000e+01 1.023900e+02
         vertex -1.291173e+03 -2.450000e+01 1.026505e+02
      endloop
   endfacet
   facet normal -9.659263e-01 -1.011754e-14 -2.588174e-01
      outer loop
         vertex -1.291173e+03 2.450000e+01 1.026505e+02
         vertex -1.291173e+03 -2.450000e+01 1.026505e+02
         vertex -1.291240e+03 2.450000e+01 1.029030e+02
      endloop
   endfacet
   facet normal -9.659263e-01 -1.011754e-14 -2.588174e-01
      outer loop
         vertex -1.291240e+03 2.450000e+01 1.029030e+02
         vertex -1.291173e+03 -2.450000e+01 1.026505e+02
         vertex -1.291240e+03 -2.450000e+01 1.029030e+02
      endloop
   endfacet
   facet normal -9.063077e-01 -9.493069e-15 -4.226185e-01
      outer loop
         vertex -1.291240e+03 2.450000e+01 1.029030e+02
         vertex -1.291240e+03 -2.450000e+01 1.029030e+02
         vertex -1.291351e+03 2.450000e+01 1.031400e+02
      endloop
   endfacet
   facet normal -9.063077e-01 -9.493069e-15 -4.226185e-01
      outer loop
         vertex -1.291351e+03 2.450000e+01 1.031400e+02
         vertex -1.291240e+03 -2.450000e+01 1.029030e+02
         vertex -1.291351e+03 -2.450000e+01 1.031400e+02
      endloop
   endfacet
   facet normal -8.191522e-01 -8.580164e-15 -5.735762e-01
      outer loop
         vertex -1.291351e+03 2.450000e+01 1.031400e+02
         vertex -1.291351e+03 -2.450000e+01 1.031400e+02
         vertex -1.291501e+03 2.450000e+01 1.033542e+02
      endloop
   endfacet
   facet normal -8.191522e-01 -8.580164e-15 -5.735762e-01
      outer loop
         vertex -1.291501e+03 2.450000e+01 1.033542e+02
         vertex -1.291351e+03 -2.450000e+01 1.031400e+02
         vertex -1.291501e+03 -2.450000e+01 1.033542e+02
      endloop
   endfacet
   facet normal -7.071068e-01 -7.406550e-15 -7.071068e-01
      outer loop
         vertex -1.291501e+03 2.450000e+01 1.033542e+02
         vertex -1.291501e+03 -2.450000e+01 1.033542e+02
         vertex -1.291686e+03 2.450000e+01 1.035391e+02
      endloop
   endfacet
   facet normal -7.071068e-01 -7.406550e-15 -7.071068e-01
      outer loop
         vertex -1.291686e+03 2.450000e+01 1.035391e+02
         vertex -1.291501e+03 -2.450000e+01 1.033542e+02
         vertex -1.291686e+03 -2.450000e+01 1.035391e+02
      endloop
   endfacet
   facet normal -5.735762e-01 -6.007892e-15 -8.191522e-01
      outer loop
         vertex -1.291686e+03 2.450000e+01 1.035391e+02
         vertex -1.291686e+03 -2.450000e+01 1.035391e+02
         vertex -1.291900e+03 2.450000e+01 1.036890e+02
      endloop
   endfacet
   facet normal -5.735762e-01 -6.007892e-15 -8.191522e-01
      outer loop
         vertex -1.291900e+03 2.450000e+01 1.036890e+02
         vertex -1.291686e+03 -2.450000e+01 1.035391e+02
         vertex -1.291900e+03 -2.450000e+01 1.036890e+02
      endloop
   endfacet
   facet normal -4.226185e-01 -4.426694e-15 -9.063077e-01
      outer loop
         vertex -1.291900e+03 2.450000e+01 1.036890e+02
         vertex -1.291900e+03 -2.450000e+01 1.036890e+02
         vertex -1.292137e+03 2.450000e+01 1.037995e+02
      endloop
   endfacet
   facet normal -4.226185e-01 -4.426694e-15 -9.063077e-01
      outer loop
         vertex -1.292137e+03 2.450000e+01 1.037995e+02
         vertex -1.291900e+03 -2.450000e+01 1.036890e+02
         vertex -1.292137e+03 -2.450000e+01 1.037995e+02
      endloop
   endfacet
   facet normal -2.588191e-01 -2.710986e-15 -9.659258e-01
      outer loop
         vertex -1.292137e+03 2.450000e+01 1.037995e+02
         vertex -1.292137e+03 -2.450000e+01 1.037995e+02
         vertex -1.292390e+03 2.450000e+01 1.038672e+02
      endloop
   endfacet
   facet normal -2.588191e-01 -2.710986e-15 -9.659258e-01
      outer loop
         vertex -1.292390e+03 2.450000e+01 1.038672e+02
         vertex -1.292137e+03 -2.450000e+01 1.037995e+02
         vertex -1.292390e+03 -2.450000e+01 1.038672e+02
      endloop
   endfacet
   facet normal -8.715635e-02 -9.129143e-16 -9.961946e-01
      outer loop
         vertex -1.292390e+03 2.450000e+01 1.038672e+02
         vertex -1.292390e+03 -2.450000e+01 1.038672e+02
         vertex -1.292650e+03 2.450000e+01 1.038900e+02
      endloop
   endfacet
   facet normal -8.715635e-02 -9.129143e-16 -9.961946e-01
      outer loop
         vertex -1.292650e+03 2.450000e+01 1.038900e+02
         vertex -1.292390e+03 -2.450000e+01 1.038672e+02
         vertex -1.292650e+03 -2.450000e+01 1.038900e+02
      endloop
   endfacet
   facet normal 8.715635e-02 9.129143e-16 -9.961946e-01
      outer loop
         vertex -1.292650e+03 2.450000e+01 1.038900e+02
         vertex -1.292650e+03 -2.450000e+01 1.038900e+02
         vertex -1.292910e+03 2.450000e+01 1.038672e+02
      endloop
   endfacet
   facet normal 8.715635e-02 9.129143e-16 -9.961946e-01
      outer loop
         vertex -1.292910e+03 2.450000e+01 1.038672e+02
         vertex -1.292650e+03 -2.450000e+01 1.038900e+02
         vertex -1.292910e+03 -2.450000e+01 1.038672e+02
      endloop
   endfacet
   facet normal 2.588191e-01 2.710986e-15 -9.659258e-01
      outer loop
         vertex -1.292910e+03 2.450000e+01 1.038672e+02
         vertex -1.292910e+03 -2.450000e+01 1.038672e+02
         vertex -1.293163e+03 2.450000e+01 1.037995e+02
      endloop
   endfacet
   facet normal 2.588191e-01 2.710986e-15 -9.659258e-01
      outer loop
         vertex -1.293163e+03 2.450000e+01 1.037995e+02
         vertex -1.292910e+03 -2.450000e+01 1.038672e+02
         vertex -1.293163e+03 -2.450000e+01 1.037995e+02
      endloop
   endfacet
   facet normal 4.226185e-01 4.426694e-15 -9.063077e-01
      outer loop
         vertex -1.293163e+03 2.450000e+01 1.037995e+02
         vertex -1.293163e+03 -2.450000e+01 1.037995e+02
         vertex -1.293400e+03 2.450000e+01 1.036890e+02
      endloop
   endfacet
   facet normal 4.226185e-01 4.426694e-15 -9.063077e-01
      outer loop
         vertex -1.293400e+03 2.450000e+01 1.036890e+02
         vertex -1.293163e+03 -2.450000e+01 1.037995e+02
         vertex -1.293400e+03 -2.450000e+01 1.036890e+02
      endloop
   endfacet
   facet normal 5.735762e-01 6.007892e-15 -8.191522e-01
      outer loop
         vertex -1.293400e+03 2.450000e+01 1.036890e+02
         vertex -1.293400e+03 -2.450000e+01 1.036890e+02
         vertex -1.293614e+03 2.450000e+01 1.035391e+02
      endloop
   endfacet
   facet normal 5.735762e-01 6.007892e-15 -8.191522e-01
      outer loop
         vertex -1.293614e+03 2.450000e+01 1.035391e+02
         vertex -1.293400e+03 -2.450000e+01 1.036890e+02
         vertex -1.293614e+03 -2.450000e+01 1.035391e+02
      endloop
   endfacet
   facet normal 7.071068e-01 7.406550e-15 -7.071068e-01
      outer loop
         vertex -1.293614e+03 2.450000e+01 1.035391e+02
         vertex -1.293614e+03 -2.450000e+01 1.035391e+02
         vertex -1.293799e+03 2.450000e+01 1.033542e+02
      endloop
   endfacet
   facet normal 7.071068e-01 7.406550e-15 -7.071068e-01
      outer loop
         vertex -1.293799e+03 2.450000e+01 1.033542e+02
         vertex -1.293614e+03 -2.450000e+01 1.035391e+02
         vertex -1.293799e+03 -2.450000e+01 1.033542e+02
      endloop
   endfacet
   facet normal 8.191522e-01 8.580164e-15 -5.735762e-01
      outer loop
         vertex -1.293799e+03 2.450000e+01 1.033542e+02
         vertex -1.293799e+03 -2.450000e+01 1.033542e+02
         vertex -1.293949e+03 2.450000e+01 1.031400e+02
      endloop
   endfacet
   facet normal 8.191522e-01 8.580164e-15 -5.735762e-01
      outer loop
         vertex -1.293949e+03 2.450000e+01 1.031400e+02
         vertex -1.293799e+03 -2.450000e+01 1.033542e+02
         vertex -1.293949e+03 -2.450000e+01 1.031400e+02
      endloop
   endfacet
   facet normal 9.063077e-01 9.493069e-15 -4.226185e-01
      outer loop
         vertex -1.293949e+03 2.450000e+01 1.031400e+02
         vertex -1.293949e+03 -2.450000e+01 1.031400e+02
         vertex -1.294060e+03 2.450000e+01 1.029030e+02
      endloop
   endfacet
   facet normal 9.063077e-01 9.493069e-15 -4.226185e-01
      outer loop
         vertex -1.294060e+03 2.450000e+01 1.029030e+02
         vertex -1.293949e+03 -2.450000e+01 1.031400e+02
         vertex -1.294060e+03 -2.450000e+01 1.029030e+02
      endloop
   endfacet
   facet normal 9.659258e-01 1.011754e-14 -2.588191e-01
      outer loop
         vertex -1.294060e+03 2.450000e+01 1.029030e+02
         vertex -1.294060e+03 -2.450000e+01 1.029030e+02
         vertex -1.294127e+03 2.450000e+01 1.026505e+02
      endloop
   endfacet
   facet normal 9.659258e-01 1.011754e-14 -2.588191e-01
      outer loop
         vertex -1.294127e+03 2.450000e+01 1.026505e+02
         vertex -1.294060e+03 -2.450000e+01 1.029030e+02
         vertex -1.294127e+03 -2.450000e+01 1.026505e+02
      endloop
   endfacet
   facet normal 9.961948e-01 1.043459e-14 -8.715458e-02
      outer loop
         vertex -1.294127e+03 2.450000e+01 1.026505e+02
         vertex -1.294127e+03 -2.450000e+01 1.026505e+02
         vertex -1.294150e+03 2.450000e+01 1.023900e+02
      endloop
   endfacet
   facet normal 9.961948e-01 1.043459e-14 -8.715458e-02
      outer loop
         vertex -1.294150e+03 2.450000e+01 1.023900e+02
         vertex -1.294127e+03 -2.450000e+01 1.026505e+02
         vertex -1.294150e+03 -2.450000e+01 1.023900e+02
      endloop
   endfacet
   facet normal 9.961948e-01 1.043459e-14 8.715458e-02
      outer loop
         vertex -1.294150e+03 2.450000e+01 1.023900e+02
         vertex -1.294150e+03 -2.450000e+01 1.023900e+02
         vertex -1.294127e+03 2.450000e+01 1.021295e+02
      endloop
   endfacet
   facet normal 9.961948e-01 1.043459e-14 8.715458e-02
      outer loop
         vertex -1.294127e+03 2.450000e+01 1.021295e+02
         vertex -1.294150e+03 -2.450000e+01 1.023900e+02
         vertex -1.294127e+03 -2.450000e+01 1.021295e+02
      endloop
   endfacet
   facet normal 9.659258e-01 1.011754e-14 2.588191e-01
      outer loop
         vertex -1.294127e+03 2.450000e+01 1.021295e+02
         vertex -1.294127e+03 -2.450000e+01 1.021295e+02
         vertex -1.294060e+03 2.450000e+01 1.018770e+02
      endloop
   endfacet
   facet normal 9.659258e-01 1.011754e-14 2.588191e-01
      outer loop
         vertex -1.294060e+03 2.450000e+01 1.018770e+02
         vertex -1.294127e+03 -2.450000e+01 1.021295e+02
         vertex -1.294060e+03 -2.450000e+01 1.018770e+02
      endloop
   endfacet
   facet normal 9.063075e-01 9.493067e-15 4.226188e-01
      outer loop
         vertex -1.294060e+03 2.450000e+01 1.018770e+02
         vertex -1.294060e+03 -2.450000e+01 1.018770e+02
         vertex -1.293949e+03 2.450000e+01 1.016400e+02
      endloop
   endfacet
   facet normal 9.063075e-01 9.493067e-15 4.226188e-01
      outer loop
         vertex -1.293949e+03 2.450000e+01 1.016400e+02
         vertex -1.294060e+03 -2.450000e+01 1.018770e+02
         vertex -1.293949e+03 -2.450000e+01 1.016400e+02
      endloop
   endfacet
   facet normal 8.191523e-01 8.580165e-15 5.735760e-01
      outer loop
         vertex -1.293949e+03 2.450000e+01 1.016400e+02
         vertex -1.293949e+03 -2.450000e+01 1.016400e+02
         vertex -1.293799e+03 2.450000e+01 1.014258e+02
      endloop
   endfacet
   facet normal 8.191523e-01 8.580165e-15 5.735760e-01
      outer loop
         vertex -1.293799e+03 2.450000e+01 1.014258e+02
         vertex -1.293949e+03 -2.450000e+01 1.016400e+02
         vertex -1.293799e+03 -2.450000e+01 1.014258e+02
      endloop
   endfacet
   facet normal 7.071068e-01 7.406550e-15 7.071068e-01
      outer loop
         vertex -1.293799e+03 2.450000e+01 1.014258e+02
         vertex -1.293799e+03 -2.450000e+01 1.014258e+02
         vertex -1.293614e+03 2.450000e+01 1.012409e+02
      endloop
   endfacet
   facet normal 7.071068e-01 7.406550e-15 7.071068e-01
      outer loop
         vertex -1.293614e+03 2.450000e+01 1.012409e+02
         vertex -1.293799e+03 -2.450000e+01 1.014258e+02
         vertex -1.293614e+03 -2.450000e+01 1.012409e+02
      endloop
   endfacet
   facet normal 5.735765e-01 6.007895e-15 8.191520e-01
      outer loop
         vertex -1.293614e+03 2.450000e+01 1.012409e+02
         vertex -1.293614e+03 -2.450000e+01 1.012409e+02
         vertex -1.293400e+03 2.450000e+01 1.010910e+02
      endloop
   endfacet
   facet normal 5.735765e-01 6.007895e-15 8.191520e-01
      outer loop
         vertex -1.293400e+03 2.450000e+01 1.010910e+02
         vertex -1.293614e+03 -2.450000e+01 1.012409e+02
         vertex -1.293400e+03 -2.450000e+01 1.010910e+02
      endloop
   endfacet
   facet normal 4.226181e-01 4.426690e-15 9.063078e-01
      outer loop
         vertex -1.293400e+03 2.450000e+01 1.010910e+02
         vertex -1.293400e+03 -2.450000e+01 1.010910e+02
         vertex -1.293163e+03 2.450000e+01 1.009805e+02
      endloop
   endfacet
   facet normal 4.226181e-01 4.426690e-15 9.063078e-01
      outer loop
         vertex -1.293163e+03 2.450000e+01 1.009805e+02
         vertex -1.293400e+03 -2.450000e+01 1.010910e+02
         vertex -1.293163e+03 -2.450000e+01 1.009805e+02
      endloop
   endfacet
   facet normal 2.588191e-01 2.710986e-15 9.659258e-01
      outer loop
         vertex -1.293163e+03 2.450000e+01 1.009805e+02
         vertex -1.293163e+03 -2.450000e+01 1.009805e+02
         vertex -1.292910e+03 2.450000e+01 1.009128e+02
      endloop
   endfacet
   facet normal 2.588191e-01 2.710986e-15 9.659258e-01
      outer loop
         vertex -1.292910e+03 2.450000e+01 1.009128e+02
         vertex -1.293163e+03 -2.450000e+01 1.009805e+02
         vertex -1.292910e+03 -2.450000e+01 1.009128e+02
      endloop
   endfacet
   facet normal 8.715546e-02 9.129050e-16 9.961947e-01
      outer loop
         vertex -1.292910e+03 2.450000e+01 1.009128e+02
         vertex -1.292910e+03 -2.450000e+01 1.009128e+02
         vertex -1.292650e+03 2.450000e+01 1.008900e+02
      endloop
   endfacet
   facet normal 8.715546e-02 9.129050e-16 9.961947e-01
      outer loop
         vertex -1.292650e+03 2.450000e+01 1.008900e+02
         vertex -1.292910e+03 -2.450000e+01 1.009128e+02
         vertex -1.292650e+03 -2.450000e+01 1.008900e+02
      endloop
   endfacet
   facet normal 1.000000e+00 1.047444e-14 0.000000e+00
      outer loop
         vertex -1.296850e+03 -2.450000e+01 1.073400e+02
         vertex -1.296850e+03 -2.500000e+02 1.073400e+02
         vertex -1.296850e+03 -2.450000e+01 9.744000e+01
      endloop
   endfacet
   facet normal 1.000000e+00 1.047444e-14 0.000000e+00
      outer loop
         vertex -1.296850e+03 -2.450000e+01 9.744000e+01
         vertex -1.296850e+03 -2.500000e+02 1.073400e+02
         vertex -1.296850e+03 -2.500000e+02 9.744000e+01
      endloop
   endfacet
   facet normal 1.047444e-14 -1.000000e+00 0.000000e+00
      outer loop
         vertex -1.296850e+03 -2.500000e+02 1.073400e+02
         vertex -1.359350e+03 -2.500000e+02 1.073400e+02
         vertex -1.296850e+03 -2.500000e+02 9.744000e+01
      endloop
   endfacet
   facet normal 1.047444e-14 -1.000000e+00 0.000000e+00
      outer loop
         vertex -1.296850e+03 -2.500000e+02 9.744000e+01
         vertex -1.359350e+03 -2.500000e+02 1.073400e+02
         vertex -1.359350e+03 -2.500000e+02 9.744000e+01
      endloop
   endfacet
   facet normal 1.000000e+00 1.047444e-14 0.000000e+00
      outer loop
         vertex -1.296850e+03 2.450000e+01 9.744000e+01
         vertex -1.296850e+03 2.500000e+02 9.744000e+01
         vertex -1.296850e+03 2.450000e+01 1.073400e+02
      endloop
   endfacet
   facet normal 1.000000e+00 1.047444e-14 0.000000e+00
      outer loop
         vertex -1.296850e+03 2.450000e+01 1.073400e+02
         vertex -1.296850e+03 2.500000e+02 9.744000e+01
         vertex -1.296850e+03 2.500000e+02 1.073400e+02
      endloop
   endfacet
   facet normal -1.047444e-14 1.000000e+00 0.000000e+00
      outer loop
         vertex -1.359350e+03 2.500000e+02 1.073400e+02
         vertex -1.296850e+03 2.500000e+02 1.073400e+02
         vertex -1.359350e+03 2.500000e+02 9.744000e+01
      endloop
   endfacet
   facet normal -1.047444e-14 1.000000e+00 0.000000e+00
      outer loop
         vertex -1.359350e+03 2.500000e+02 9.744000e+01
         vertex -1.296850e+03 2.500000e+02 1.073400e+02
         vertex -1.296850e+03 2.500000e+02 9.744000e+01
      endloop
   endfacet
   facet normal -1.000000e+00 -1.047444e-14 -0.000000e+00
      outer loop
         vertex -1.359350e+03 -2.500000e+02 1.073400e+02
         vertex -1.359350e+03 2.500000e+02 1.073400e+02
         vertex -1.359350e+03 -2.500000e+02 9.744000e+01
      endloop
   endfacet
   facet normal -1.000000e+00 -1.047444e-14 0.000000e+00
      outer loop
         vertex -1.359350e+03 -2.500000e+02 9.744000e+01
         vertex -1.359350e+03 2.500000e+02 1.073400e+02
         vertex -1.359350e+03 2.500000e+02 9.744000e+01
      endloop
   endfacet
   facet normal 0.000000e+00 0.000000e+00 1.000000e+00
      outer loop
         vertex -1.296850e+03 2.450000e+01 1.073400e+02
         vertex -1.296850e+03 2.500000e+02 1.073400e+02
         vertex -1.305350e+03 2.450000e+01 1.073400e+02
      endloop
   endfacet
   facet normal 0.000000e+00 0.000000e+00 1.000000e+00
      outer loop
         vertex -1.305350e+03 2.450000e+01 1.073400e+02
         vertex -1.296850e+03 2.500000e+02 1.073400e+02
         vertex -1.359350e+03 2.500000e+02 1.073400e+02
      endloop
   endfacet
   facet normal 0.000000e+00 0.000000e+00 1.000000e+00
      outer loop
         vertex -1.305350e+03 2.450000e+01 1.073400e+02
         vertex -1.359350e+03 2.500000e+02 1.073400e+02
         vertex -1.305350e+03 -2.450000e+01 1.073400e+02
      endloop
   endfacet
   facet normal 0.000000e+00 0.000000e+00 1.000000e+00
      outer loop
         vertex -1.305350e+03 -2.450000e+01 1.073400e+02
         vertex -1.359350e+03 2.500000e+02 1.073400e+02
         vertex -1.359350e+03 -2.500000e+02 1.073400e+02
      endloop
   endfacet
   facet normal 0.000000e+00 0.000000e+00 1.000000e+00
      outer loop
         vertex -1.305350e+03 -2.450000e+01 1.073400e+02
         vertex -1.359350e+03 -2.500000e+02 1.073400e+02
         vertex -1.296850e+03 -2.450000e+01 1.073400e+02
      endloop
   endfacet
   facet normal 0.000000e+00 0.000000e+00 1.000000e+00
      outer loop
         vertex -1.296850e+03 -2.450000e+01 1.073400e+02
         vertex -1.359350e+03 -2.500000e+02 1.073400e+02
         vertex -1.296850e+03 -2.500000e+02 1.073400e+02
      endloop
   endfacet
   facet normal 0.000000e+00 0.000000e+00 -1.000000e+00
      outer loop
         vertex -1.296850e+03 -2.450000e+01 9.744000e+01
         vertex -1.296850e+03 -2.500000e+02 9.744000e+01
         vertex -1.305350e+03 -2.450000e+01 9.744000e+01
      endloop
   endfacet
   facet normal 0.000000e+00 0.000000e+00 -1.000000e+00
      outer loop
         vertex -1.305350e+03 -2.450000e+01 9.744000e+01
         vertex -1.296850e+03 -2.500000e+02 9.744000e+01
         vertex -1.359350e+03 -2.500000e+02 9.744000e+01
      endloop
   endfacet
   facet normal -0.000000e+00 0.000000e+00 -1.000000e+00
      outer loop
         vertex -1.305350e+03 -2.450000e+01 9.744000e+01
         vertex -1.359350e+03 -2.500000e+02 9.744000e+01
         vertex -1.305350e+03 2.450000e+01 9.744000e+01
      endloop
   endfacet
   facet normal 0.000000e+00 -0.000000e+00 -1.000000e+00
      outer loop
         vertex -1.305350e+03 2.450000e+01 9.744000e+01
         vertex -1.359350e+03 -2.500000e+02 9.744000e+01
         vertex -1.359350e+03 2.500000e+02 9.744000e+01
      endloop
   endfacet
   facet normal 0.000000e+00 0.000000e+00 -1.000000e+00
      outer loop
         vertex -1.305350e+03 2.450000e+01 9.744000e+01
         vertex -1.359350e+03 2.500000e+02 9.744000e+01
         vertex -1.296850e+03 2.450000e+01 9.744000e+01
      endloop
   endfacet
   facet normal 0.000000e+00 0.000000e+00 -1.000000e+00
      outer loop
         vertex -1.296850e+03 2.450000e+01 9.744000e+01
         vertex -1.359350e+03 2.500000e+02 9.744000e+01
         vertex -1.296850e+03 2.500000e+02 9.744000e+01
      endloop
   endfacet
   facet normal -1.047444e-14 1.000000e+00 0.000000e+00
      outer loop
         vertex -1.305350e+03 -2.450000e+01 1.073400e+02
         vertex -1.296850e+03 -2.450000e+01 1.073400e+02
         vertex -1.305350e+03 -2.450000e+01 9.744000e+01
      endloop
   endfacet
   facet normal -1.047444e-14 1.000000e+00 0.000000e+00
      outer loop
         vertex -1.305350e+03 -2.450000e+01 9.744000e+01
         vertex -1.296850e+03 -2.450000e+01 1.073400e+02
         vertex -1.296850e+03 -2.450000e+01 9.744000e+01
      endloop
   endfacet
   facet normal 1.047444e-14 -1.000000e+00 0.000000e+00
      outer loop
         vertex -1.305350e+03 2.450000e+01 9.744000e+01
         vertex -1.296850e+03 2.450000e+01 9.744000e+01
         vertex -1.305350e+03 2.450000e+01 1.073400e+02
      endloop
   endfacet
   facet normal 1.047444e-14 -1.000000e+00 0.000000e+00
      outer loop
         vertex -1.305350e+03 2.450000e+01 1.073400e+02
         vertex -1.296850e+03 2.450000e+01 9.744000e+01
         vertex -1.296850e+03 2.450000e+01 1.073400e+02
      endloop
   endfacet
   facet normal 1.000000e+00 1.047444e-14 0.000000e+00
      outer loop
         vertex -1.305350e+03 -2.450000e+01 9.744000e+01
         vertex -1.305350e+03 2.450000e+01 9.744000e+01
         vertex -1.305350e+03 -2.450000e+01 1.073400e+02
      endloop
   endfacet
   facet normal 1.000000e+00 1.047444e-14 0.000000e+00
      outer loop
         vertex -1.305350e+03 -2.450000e+01 1.073400e+02
         vertex -1.305350e+03 2.450000e+01 9.744000e+01
         vertex -1.305350e+03 2.450000e+01 1.073400e+02
      endloop
   endfacet
endsolid